# xmcd CD database file
#
# Track frame offsets:
#	150
#	20617
#	43487
#	65970
#	90375
#	96762
#	122337
#	145320
#	164350
#	188162
#	203350
#	221987
#	244050
#
# Disc length: 3429 seconds
#
# Revision: 0
# Processed by: cddbd v1.5.1PL0 Copyright (c) Steve Scherf et al.
# Submitted via: CDex 1.51
#
DISCID=bd0d630d
DTITLE=SEGI - SILENCIO
DYEAR=1900
DGENRE=Pop
TTITLE0=SILENCIO
TTITLE1=CIELO
TTITLE2=HOME AWAY HOME
TTITLE3=TRISTE
TTITLE4=BEYOND THE TIME
TTITLE5=SECRET PLACE
TTITLE6=TIERRA
TTITLE7=QUEBRADA
TTITLE8=AFRICAN SKY
TTITLE9=SOUTHERN HEART
TTITLE10=MERCEDITAS
TTITLE11=THE FARAWAY SONG
TTITLE12=SILENCIO DE PIANO
EXTD=
EXTT0=
EXTT1=
EXTT2=
EXTT3=
EXTT4=
EXTT5=
EXTT6=
EXTT7=
EXTT8=
EXTT9=
EXTT10=
EXTT11=
EXTT12=
PLAYORDER=
